<?xml version="1.0" encoding="utf-8"?>
<!-- Generator: Adobe Illustrator 16.0.4, SVG Export Plug-In . SVG Version: 6.00 Build 0)  -->
<!DOCTYPE svg PUBLIC "-//W3C//DTD SVG 1.1//EN" "http://www.w3.org/Graphics/SVG/1.1/DTD/svg11.dtd">
<svg version="1.1" id="Layer_1" xmlns="http://www.w3.org/2000/svg" xmlns:xlink="http://www.w3.org/1999/xlink" x="0px" y="0px"
	 width="384.605px" height="143.829px" viewBox="0 0 384.605 143.829" enable-background="new 0 0 384.605 143.829"
	 xml:space="preserve">
<line fill="#FFFFFF" stroke="#241F20" x1="254.333" y1="33.581" x2="235.667" y2="10.915"/>
<line fill="#FFFFFF" stroke="#241F20" x1="279.667" y1="33.581" x2="271.667" y2="10.915"/>
<line fill="#FFFFFF" stroke="#241F20" x1="305.667" y1="33.581" x2="314.083" y2="10.498"/>
<line fill="#FFFFFF" stroke="#241F20" x1="333" y1="33.581" x2="357.916" y2="11.331"/>
<g>
	<line fill="#FFFFFF" stroke="#241F20" x1="57.667" y1="38.248" x2="57.667" y2="121.581"/>
	<path fill="#241F20" d="M58.691,123.943c0.5-1.653,0.959-2.728,1.492-4.054h-5.044c0.226,0.475,0.993,2.401,1.492,4.054
		c0.535,1.77,0.9,3.374,1.031,4.415C57.792,127.317,58.157,125.712,58.691,123.943z"/>
</g>
<g>
	<line fill="#FFFFFF" stroke="#241F20" x1="57.661" y1="128.357" x2="353.667" y2="128.357"/>
	<path fill="#241F20" d="M356.029,127.333c-1.654-0.5-2.729-0.959-4.055-1.492v5.044c0.475-0.226,2.4-0.993,4.055-1.492
		c1.77-0.535,3.373-0.9,4.414-1.031C359.402,128.232,357.799,127.867,356.029,127.333z"/>
</g>
<g>
	<path fill="#241F20" d="M0.933,84.915v-7.158H1.88v7.158H0.933z"/>
	<path fill="#241F20" d="M3.438,84.915v-5.186h0.791v0.737c0.381-0.57,0.931-0.854,1.65-0.854c0.312,0,0.6,0.056,0.862,0.168
		s0.458,0.26,0.588,0.442s0.221,0.399,0.273,0.649c0.033,0.163,0.049,0.448,0.049,0.854v3.188H6.772V81.76
		c0-0.358-0.034-0.626-0.103-0.803s-0.189-0.319-0.364-0.425s-0.378-0.159-0.613-0.159c-0.375,0-0.697,0.119-0.969,0.356
		s-0.408,0.688-0.408,1.353v2.832H3.438z"/>
	<path fill="#241F20" d="M8.647,83.367l0.869-0.137c0.049,0.348,0.185,0.615,0.408,0.801s0.535,0.278,0.935,0.278
		c0.404,0,0.703-0.082,0.898-0.247s0.293-0.357,0.293-0.579c0-0.199-0.086-0.355-0.259-0.469c-0.121-0.078-0.42-0.177-0.898-0.298
		c-0.645-0.163-1.091-0.304-1.34-0.422s-0.438-0.283-0.566-0.493s-0.193-0.442-0.193-0.696c0-0.231,0.053-0.445,0.159-0.642
		s0.25-0.36,0.432-0.491c0.137-0.101,0.323-0.187,0.559-0.256s0.489-0.105,0.759-0.105c0.407,0,0.764,0.059,1.072,0.176
		s0.535,0.276,0.681,0.476s0.248,0.468,0.303,0.803l-0.859,0.117c-0.039-0.267-0.152-0.475-0.339-0.625s-0.452-0.225-0.793-0.225
		c-0.404,0-0.692,0.067-0.864,0.2s-0.259,0.29-0.259,0.469c0,0.114,0.036,0.216,0.107,0.308c0.072,0.094,0.184,0.172,0.337,0.234
		c0.088,0.033,0.347,0.107,0.776,0.225c0.622,0.166,1.056,0.302,1.301,0.408s0.438,0.26,0.579,0.461s0.21,0.453,0.21,0.752
		c0,0.293-0.085,0.569-0.256,0.828s-0.417,0.459-0.74,0.601s-0.687,0.212-1.094,0.212c-0.674,0-1.188-0.14-1.541-0.42
		S8.745,83.917,8.647,83.367z"/>
	<path fill="#241F20" d="M15.918,84.128l0.127,0.776c-0.248,0.052-0.469,0.078-0.664,0.078c-0.319,0-0.566-0.05-0.742-0.151
		s-0.299-0.233-0.371-0.398s-0.107-0.51-0.107-1.038v-2.983h-0.645v-0.684h0.645v-1.284l0.874-0.527v1.812h0.884v0.684h-0.884v3.032
		c0,0.25,0.016,0.412,0.046,0.483s0.082,0.128,0.151,0.171s0.17,0.063,0.3,0.063C15.63,84.163,15.758,84.151,15.918,84.128z"/>
	<path fill="#241F20" d="M16.768,84.915v-5.186h0.791v0.786c0.202-0.368,0.388-0.61,0.559-0.728s0.359-0.176,0.564-0.176
		c0.296,0,0.597,0.094,0.903,0.283l-0.303,0.815c-0.215-0.127-0.43-0.19-0.645-0.19c-0.192,0-0.365,0.058-0.518,0.173
		s-0.262,0.276-0.327,0.481c-0.098,0.312-0.146,0.654-0.146,1.025v2.715H16.768z"/>
	<path fill="#241F20" d="M23.506,84.915v-0.762c-0.404,0.586-0.952,0.879-1.646,0.879c-0.306,0-0.592-0.059-0.857-0.176
		s-0.462-0.265-0.591-0.442s-0.219-0.395-0.271-0.652c-0.036-0.172-0.054-0.446-0.054-0.82v-3.213h0.879v2.876
		c0,0.459,0.018,0.768,0.054,0.928c0.055,0.231,0.172,0.413,0.352,0.544s0.4,0.198,0.664,0.198s0.511-0.067,0.742-0.203
		s0.395-0.319,0.491-0.552s0.144-0.57,0.144-1.013v-2.778h0.879v5.186H23.506z"/>
	<path fill="#241F20" d="M29.053,83.015l0.864,0.112c-0.094,0.596-0.336,1.062-0.725,1.399s-0.867,0.505-1.433,0.505
		c-0.709,0-1.28-0.232-1.711-0.696S25.4,83.207,25.4,82.341c0-0.56,0.093-1.05,0.278-1.47s0.468-0.735,0.847-0.945
		s0.792-0.315,1.238-0.315c0.563,0,1.024,0.143,1.382,0.427s0.587,0.689,0.688,1.213l-0.854,0.132
		c-0.082-0.348-0.226-0.61-0.432-0.786s-0.457-0.264-0.75-0.264c-0.443,0-0.802,0.159-1.079,0.476s-0.415,0.819-0.415,1.506
		c0,0.697,0.133,1.203,0.4,1.519s0.615,0.474,1.045,0.474c0.345,0,0.633-0.106,0.864-0.317S28.991,83.455,29.053,83.015z"/>
	<path fill="#241F20" d="M32.588,84.128l0.127,0.776c-0.248,0.052-0.469,0.078-0.664,0.078c-0.319,0-0.566-0.05-0.742-0.151
		s-0.299-0.233-0.371-0.398s-0.107-0.51-0.107-1.038v-2.983h-0.645v-0.684h0.645v-1.284l0.874-0.527v1.812h0.884v0.684h-0.884v3.032
		c0,0.25,0.016,0.412,0.046,0.483s0.082,0.128,0.151,0.171s0.17,0.063,0.3,0.063C32.3,84.163,32.428,84.151,32.588,84.128z"/>
	<path fill="#241F20" d="M33.452,78.767v-1.011h0.879v1.011H33.452z M33.452,84.915v-5.186h0.879v5.186H33.452z"/>
	<path fill="#241F20" d="M35.342,82.322c0-0.96,0.267-1.671,0.801-2.134c0.446-0.384,0.99-0.576,1.631-0.576
		c0.713,0,1.295,0.233,1.748,0.701s0.679,1.112,0.679,1.936c0,0.667-0.1,1.192-0.3,1.575s-0.492,0.68-0.874,0.891
		s-0.8,0.317-1.252,0.317c-0.726,0-1.312-0.233-1.76-0.698S35.342,83.197,35.342,82.322z M36.245,82.322
		c0,0.664,0.145,1.161,0.435,1.492s0.654,0.496,1.094,0.496c0.436,0,0.799-0.166,1.089-0.498s0.435-0.838,0.435-1.519
		c0-0.641-0.146-1.127-0.437-1.458s-0.653-0.496-1.086-0.496c-0.439,0-0.804,0.165-1.094,0.493S36.245,81.658,36.245,82.322z"/>
	<path fill="#241F20" d="M41.23,84.915v-5.186h0.791v0.737c0.381-0.57,0.931-0.854,1.65-0.854c0.312,0,0.6,0.056,0.862,0.168
		s0.458,0.26,0.588,0.442s0.221,0.399,0.273,0.649c0.033,0.163,0.049,0.448,0.049,0.854v3.188h-0.879V81.76
		c0-0.358-0.034-0.626-0.103-0.803s-0.189-0.319-0.364-0.425s-0.378-0.159-0.613-0.159c-0.375,0-0.697,0.119-0.969,0.356
		s-0.408,0.688-0.408,1.353v2.832H41.23z"/>
	<path fill="#241F20" d="M46.44,83.367l0.869-0.137c0.049,0.348,0.185,0.615,0.408,0.801s0.535,0.278,0.935,0.278
		c0.404,0,0.703-0.082,0.898-0.247s0.293-0.357,0.293-0.579c0-0.199-0.086-0.355-0.259-0.469c-0.121-0.078-0.42-0.177-0.898-0.298
		c-0.645-0.163-1.091-0.304-1.34-0.422s-0.438-0.283-0.566-0.493s-0.193-0.442-0.193-0.696c0-0.231,0.053-0.445,0.159-0.642
		s0.25-0.36,0.432-0.491c0.137-0.101,0.323-0.187,0.559-0.256s0.489-0.105,0.759-0.105c0.407,0,0.764,0.059,1.072,0.176
		s0.535,0.276,0.681,0.476s0.248,0.468,0.303,0.803l-0.859,0.117c-0.039-0.267-0.152-0.475-0.339-0.625s-0.452-0.225-0.793-0.225
		c-0.404,0-0.692,0.067-0.864,0.2s-0.259,0.29-0.259,0.469c0,0.114,0.036,0.216,0.107,0.308c0.072,0.094,0.184,0.172,0.337,0.234
		c0.088,0.033,0.347,0.107,0.776,0.225c0.622,0.166,1.056,0.302,1.301,0.408s0.438,0.26,0.579,0.461s0.21,0.453,0.21,0.752
		c0,0.293-0.085,0.569-0.256,0.828s-0.417,0.459-0.74,0.601s-0.687,0.212-1.094,0.212c-0.674,0-1.188-0.14-1.541-0.42
		S46.538,83.917,46.44,83.367z"/>
</g>
<g>
	<path fill="#241F20" d="M221.154,8.582V1.423h4.829v0.845h-3.882v2.217h3.359V5.33h-3.359v3.252H221.154z"/>
	<path fill="#241F20" d="M230.651,6.912l0.908,0.112c-0.143,0.531-0.409,0.942-0.796,1.235s-0.882,0.439-1.484,0.439
		c-0.758,0-1.36-0.233-1.804-0.701s-0.667-1.122-0.667-1.965c0-0.873,0.225-1.549,0.674-2.031s1.032-0.723,1.748-0.723
		c0.693,0,1.26,0.236,1.699,0.708s0.659,1.136,0.659,1.992c0,0.052-0.001,0.13-0.005,0.234h-3.867
		c0.033,0.57,0.194,1.006,0.483,1.309s0.651,0.454,1.084,0.454c0.322,0,0.597-0.084,0.825-0.254S230.518,7.283,230.651,6.912z
		 M227.765,5.491h2.896c-0.039-0.436-0.15-0.763-0.332-0.981c-0.28-0.338-0.643-0.508-1.089-0.508c-0.404,0-0.743,0.135-1.018,0.405
		S227.794,5.038,227.765,5.491z"/>
	<path fill="#241F20" d="M234.582,7.795l0.127,0.776c-0.248,0.052-0.469,0.078-0.664,0.078c-0.319,0-0.566-0.05-0.742-0.151
		s-0.299-0.233-0.371-0.398s-0.107-0.51-0.107-1.038V4.08h-0.645V3.396h0.645V2.112l0.874-0.527v1.812h0.884V4.08h-0.884v3.032
		c0,0.25,0.016,0.412,0.046,0.483s0.082,0.128,0.151,0.171s0.17,0.063,0.3,0.063C234.293,7.83,234.422,7.818,234.582,7.795z"/>
	<path fill="#241F20" d="M238.825,6.682l0.864,0.112c-0.094,0.596-0.336,1.062-0.725,1.399s-0.867,0.505-1.433,0.505
		c-0.709,0-1.28-0.232-1.711-0.696s-0.647-1.129-0.647-1.995c0-0.56,0.093-1.05,0.278-1.47s0.468-0.735,0.847-0.945
		s0.792-0.315,1.238-0.315c0.563,0,1.024,0.143,1.382,0.427s0.587,0.689,0.688,1.213l-0.854,0.132
		c-0.082-0.348-0.226-0.61-0.432-0.786s-0.457-0.264-0.75-0.264c-0.443,0-0.802,0.159-1.079,0.476s-0.415,0.819-0.415,1.506
		c0,0.697,0.133,1.203,0.4,1.519s0.615,0.474,1.045,0.474c0.345,0,0.633-0.106,0.864-0.317S238.763,7.122,238.825,6.682z"/>
	<path fill="#241F20" d="M240.441,8.582V1.423h0.879v2.568c0.41-0.475,0.928-0.713,1.553-0.713c0.384,0,0.718,0.076,1.001,0.227
		s0.486,0.36,0.608,0.627s0.183,0.654,0.183,1.162v3.286h-0.879V5.295c0-0.439-0.095-0.759-0.286-0.959s-0.46-0.3-0.808-0.3
		c-0.26,0-0.505,0.067-0.735,0.203s-0.393,0.318-0.491,0.549s-0.146,0.55-0.146,0.957v2.837H240.441z"/>
</g>
<g>
	<path fill="#241F20" d="M254.105,8.582V1.423h2.466c0.557,0,0.981,0.034,1.274,0.103c0.41,0.094,0.76,0.265,1.05,0.513
		c0.378,0.319,0.66,0.727,0.847,1.223c0.188,0.497,0.281,1.063,0.281,1.702c0,0.543-0.063,1.025-0.19,1.445s-0.29,0.768-0.488,1.042
		s-0.416,0.492-0.651,0.649c-0.236,0.158-0.521,0.277-0.855,0.359c-0.333,0.082-0.717,0.122-1.149,0.122H254.105z M255.053,7.737
		h1.528c0.472,0,0.843-0.044,1.11-0.132c0.27-0.088,0.483-0.211,0.643-0.371c0.225-0.225,0.399-0.526,0.525-0.906
		c0.125-0.379,0.188-0.839,0.188-1.379c0-0.749-0.123-1.324-0.369-1.726c-0.245-0.402-0.544-0.671-0.896-0.808
		c-0.254-0.098-0.662-0.146-1.226-0.146h-1.504V7.737z"/>
	<path fill="#241F20" d="M264.765,6.912l0.908,0.112c-0.144,0.531-0.408,0.942-0.796,1.235s-0.882,0.439-1.484,0.439
		c-0.759,0-1.359-0.233-1.805-0.701c-0.443-0.467-0.666-1.122-0.666-1.965c0-0.873,0.225-1.549,0.674-2.031s1.032-0.723,1.748-0.723
		c0.693,0,1.26,0.236,1.699,0.708s0.659,1.136,0.659,1.992c0,0.052-0.002,0.13-0.005,0.234h-3.867
		c0.032,0.57,0.193,1.006,0.483,1.309s0.651,0.454,1.084,0.454c0.322,0,0.598-0.084,0.825-0.254S264.631,7.283,264.765,6.912z
		 M261.879,5.491h2.896c-0.039-0.436-0.149-0.763-0.332-0.981c-0.28-0.338-0.643-0.508-1.089-0.508
		c-0.403,0-0.743,0.135-1.018,0.405C262.061,4.677,261.908,5.038,261.879,5.491z"/>
	<path fill="#241F20" d="M270.16,6.682l0.864,0.112c-0.095,0.596-0.336,1.062-0.726,1.399c-0.389,0.337-0.866,0.505-1.433,0.505
		c-0.71,0-1.28-0.232-1.712-0.696c-0.431-0.464-0.646-1.129-0.646-1.995c0-0.56,0.093-1.05,0.278-1.47s0.468-0.735,0.847-0.945
		c0.38-0.21,0.792-0.315,1.238-0.315c0.563,0,1.023,0.143,1.382,0.427s0.588,0.689,0.688,1.213l-0.854,0.132
		c-0.081-0.348-0.226-0.61-0.433-0.786c-0.206-0.176-0.456-0.264-0.749-0.264c-0.442,0-0.803,0.159-1.079,0.476
		s-0.415,0.819-0.415,1.506c0,0.697,0.134,1.203,0.4,1.519s0.615,0.474,1.045,0.474c0.345,0,0.633-0.106,0.864-0.317
		S270.099,7.122,270.16,6.682z"/>
	<path fill="#241F20" d="M271.449,5.989c0-0.96,0.267-1.671,0.801-2.134c0.446-0.384,0.989-0.576,1.631-0.576
		c0.713,0,1.296,0.233,1.748,0.701s0.679,1.112,0.679,1.936c0,0.667-0.101,1.192-0.3,1.575c-0.201,0.382-0.492,0.68-0.875,0.891
		c-0.382,0.211-0.8,0.317-1.252,0.317c-0.726,0-1.312-0.233-1.76-0.698C271.673,7.535,271.449,6.864,271.449,5.989z M272.353,5.989
		c0,0.664,0.145,1.161,0.435,1.492s0.654,0.496,1.094,0.496c0.437,0,0.799-0.166,1.089-0.498s0.435-0.838,0.435-1.519
		c0-0.641-0.146-1.127-0.438-1.458c-0.291-0.331-0.653-0.496-1.086-0.496c-0.439,0-0.804,0.165-1.094,0.493
		S272.353,5.325,272.353,5.989z"/>
	<path fill="#241F20" d="M280.702,8.582V7.927c-0.329,0.514-0.812,0.771-1.45,0.771c-0.413,0-0.793-0.114-1.141-0.342
		c-0.346-0.228-0.615-0.546-0.805-0.955c-0.191-0.409-0.286-0.878-0.286-1.409c0-0.518,0.086-0.987,0.259-1.409
		s0.432-0.745,0.776-0.969s0.73-0.337,1.157-0.337c0.312,0,0.591,0.066,0.835,0.198s0.442,0.304,0.596,0.515V1.423h0.874v7.158
		H280.702z M277.924,5.994c0,0.664,0.14,1.161,0.42,1.489s0.61,0.493,0.991,0.493c0.384,0,0.71-0.157,0.979-0.471
		c0.268-0.314,0.402-0.793,0.402-1.438c0-0.709-0.137-1.23-0.41-1.562s-0.61-0.498-1.011-0.498c-0.391,0-0.717,0.16-0.979,0.479
		C278.055,4.804,277.924,5.307,277.924,5.994z"/>
	<path fill="#241F20" d="M286.449,6.912l0.908,0.112c-0.144,0.531-0.408,0.942-0.796,1.235s-0.882,0.439-1.484,0.439
		c-0.759,0-1.36-0.233-1.804-0.701c-0.445-0.467-0.667-1.122-0.667-1.965c0-0.873,0.225-1.549,0.674-2.031s1.032-0.723,1.748-0.723
		c0.693,0,1.26,0.236,1.699,0.708s0.659,1.136,0.659,1.992c0,0.052-0.002,0.13-0.005,0.234h-3.867
		c0.032,0.57,0.193,1.006,0.483,1.309s0.651,0.454,1.084,0.454c0.322,0,0.598-0.084,0.825-0.254S286.315,7.283,286.449,6.912z
		 M283.563,5.491h2.896c-0.039-0.436-0.149-0.763-0.332-0.981c-0.28-0.338-0.643-0.508-1.089-0.508
		c-0.403,0-0.743,0.135-1.019,0.405C283.745,4.677,283.593,5.038,283.563,5.491z"/>
</g>
<g>
	<path fill="#241F20" d="M297.458,8.582V1.423h5.176v0.845h-4.229V4.46h3.96V5.3h-3.96v2.437h4.395v0.845H297.458z"/>
	<path fill="#241F20" d="M303.41,8.582l1.895-2.695l-1.753-2.49h1.099l0.796,1.216c0.149,0.231,0.271,0.425,0.361,0.581
		c0.144-0.215,0.275-0.405,0.396-0.571l0.874-1.226h1.05l-1.792,2.441l1.929,2.744h-1.079L306.12,6.97l-0.283-0.435l-1.362,2.046
		H303.41z"/>
	<path fill="#241F20" d="M312.546,6.912l0.908,0.112c-0.144,0.531-0.408,0.942-0.796,1.235s-0.882,0.439-1.484,0.439
		c-0.759,0-1.359-0.233-1.805-0.701c-0.443-0.467-0.666-1.122-0.666-1.965c0-0.873,0.225-1.549,0.674-2.031s1.032-0.723,1.748-0.723
		c0.693,0,1.26,0.236,1.699,0.708s0.659,1.136,0.659,1.992c0,0.052-0.002,0.13-0.005,0.234h-3.867
		c0.032,0.57,0.193,1.006,0.483,1.309s0.651,0.454,1.084,0.454c0.322,0,0.598-0.084,0.825-0.254S312.412,7.283,312.546,6.912z
		 M309.66,5.491h2.896c-0.039-0.436-0.149-0.763-0.332-0.981c-0.28-0.338-0.643-0.508-1.089-0.508c-0.403,0-0.743,0.135-1.018,0.405
		C309.842,4.677,309.689,5.038,309.66,5.491z"/>
	<path fill="#241F20" d="M317.941,6.682l0.864,0.112c-0.095,0.596-0.336,1.062-0.726,1.399c-0.389,0.337-0.866,0.505-1.433,0.505
		c-0.71,0-1.28-0.232-1.712-0.696c-0.431-0.464-0.646-1.129-0.646-1.995c0-0.56,0.093-1.05,0.278-1.47s0.468-0.735,0.847-0.945
		c0.38-0.21,0.792-0.315,1.238-0.315c0.563,0,1.023,0.143,1.382,0.427s0.588,0.689,0.688,1.213l-0.854,0.132
		c-0.081-0.348-0.226-0.61-0.433-0.786c-0.206-0.176-0.456-0.264-0.749-0.264c-0.442,0-0.803,0.159-1.079,0.476
		s-0.415,0.819-0.415,1.506c0,0.697,0.134,1.203,0.4,1.519s0.615,0.474,1.045,0.474c0.345,0,0.633-0.106,0.864-0.317
		S317.88,7.122,317.941,6.682z"/>
	<path fill="#241F20" d="M322.956,8.582V7.82c-0.403,0.586-0.952,0.879-1.646,0.879c-0.306,0-0.592-0.059-0.857-0.176
		c-0.265-0.117-0.462-0.265-0.59-0.442c-0.129-0.177-0.22-0.395-0.271-0.652c-0.036-0.172-0.054-0.446-0.054-0.82V3.396h0.879v2.876
		c0,0.459,0.018,0.768,0.054,0.928c0.056,0.231,0.173,0.413,0.352,0.544s0.4,0.198,0.664,0.198s0.511-0.067,0.742-0.203
		s0.395-0.319,0.49-0.552c0.097-0.233,0.145-0.57,0.145-1.013V3.396h0.879v5.186H322.956z"/>
	<path fill="#241F20" d="M327.038,7.795l0.127,0.776c-0.247,0.052-0.469,0.078-0.664,0.078c-0.319,0-0.566-0.05-0.742-0.151
		s-0.3-0.233-0.371-0.398s-0.107-0.51-0.107-1.038V4.08h-0.645V3.396h0.645V2.112l0.874-0.527v1.812h0.884V4.08h-0.884v3.032
		c0,0.25,0.016,0.412,0.047,0.483c0.03,0.072,0.081,0.128,0.15,0.171c0.07,0.042,0.171,0.063,0.301,0.063
		C326.75,7.83,326.879,7.818,327.038,7.795z"/>
	<path fill="#241F20" d="M331.447,6.912l0.908,0.112c-0.144,0.531-0.408,0.942-0.796,1.235s-0.882,0.439-1.484,0.439
		c-0.759,0-1.36-0.233-1.804-0.701c-0.445-0.467-0.667-1.122-0.667-1.965c0-0.873,0.225-1.549,0.674-2.031s1.032-0.723,1.748-0.723
		c0.693,0,1.26,0.236,1.699,0.708s0.659,1.136,0.659,1.992c0,0.052-0.002,0.13-0.005,0.234h-3.867
		c0.032,0.57,0.193,1.006,0.483,1.309s0.651,0.454,1.084,0.454c0.322,0,0.598-0.084,0.825-0.254S331.313,7.283,331.447,6.912z
		 M328.562,5.491h2.896c-0.039-0.436-0.149-0.763-0.332-0.981c-0.28-0.338-0.643-0.508-1.089-0.508
		c-0.403,0-0.743,0.135-1.019,0.405C328.743,4.677,328.591,5.038,328.562,5.491z"/>
</g>
<g>
	<path fill="#241F20" d="M342.354,8.582l-1.899-7.158h0.972l1.089,4.692c0.117,0.492,0.218,0.98,0.303,1.465
		c0.183-0.765,0.29-1.206,0.322-1.323l1.362-4.834h1.143l1.025,3.623c0.257,0.898,0.442,1.743,0.557,2.534
		c0.091-0.453,0.21-0.972,0.356-1.558l1.123-4.6h0.952l-1.963,7.158h-0.913l-1.509-5.454c-0.127-0.456-0.202-0.736-0.225-0.84
		c-0.075,0.329-0.145,0.609-0.21,0.84l-1.519,5.454H342.354z"/>
	<path fill="#241F20" d="M350.24,8.582V3.396h0.791v0.786c0.202-0.368,0.389-0.61,0.559-0.728c0.172-0.117,0.359-0.176,0.564-0.176
		c0.296,0,0.598,0.094,0.903,0.283l-0.303,0.815c-0.215-0.127-0.43-0.19-0.645-0.19c-0.192,0-0.364,0.058-0.518,0.173
		s-0.262,0.276-0.327,0.481c-0.098,0.312-0.146,0.654-0.146,1.025v2.715H350.24z"/>
	<path fill="#241F20" d="M353.585,2.434V1.423h0.879v1.011H353.585z M353.585,8.582V3.396h0.879v5.186H353.585z"/>
	<path fill="#241F20" d="M357.721,7.795l0.127,0.776c-0.247,0.052-0.469,0.078-0.664,0.078c-0.319,0-0.566-0.05-0.742-0.151
		s-0.3-0.233-0.371-0.398s-0.107-0.51-0.107-1.038V4.08h-0.645V3.396h0.645V2.112l0.874-0.527v1.812h0.884V4.08h-0.884v3.032
		c0,0.25,0.016,0.412,0.046,0.483c0.031,0.072,0.082,0.128,0.152,0.171c0.069,0.042,0.17,0.063,0.3,0.063
		C357.433,7.83,357.562,7.818,357.721,7.795z"/>
	<path fill="#241F20" d="M362.13,6.912l0.908,0.112c-0.144,0.531-0.408,0.942-0.796,1.235s-0.882,0.439-1.484,0.439
		c-0.759,0-1.359-0.233-1.805-0.701c-0.443-0.467-0.666-1.122-0.666-1.965c0-0.873,0.225-1.549,0.674-2.031s1.032-0.723,1.748-0.723
		c0.693,0,1.26,0.236,1.699,0.708s0.659,1.136,0.659,1.992c0,0.052-0.002,0.13-0.005,0.234h-3.867
		c0.032,0.57,0.193,1.006,0.483,1.309s0.651,0.454,1.084,0.454c0.322,0,0.598-0.084,0.825-0.254S361.996,7.283,362.13,6.912z
		 M359.244,5.491h2.896c-0.039-0.436-0.149-0.763-0.332-0.981c-0.28-0.338-0.643-0.508-1.089-0.508
		c-0.403,0-0.743,0.135-1.018,0.405C359.426,4.677,359.273,5.038,359.244,5.491z"/>
	<path fill="#241F20" d="M364.952,8.582h-0.815V1.423h0.879v2.554c0.371-0.465,0.845-0.698,1.421-0.698
		c0.319,0,0.621,0.064,0.905,0.193c0.285,0.128,0.52,0.309,0.703,0.542c0.185,0.233,0.328,0.514,0.433,0.842s0.156,0.68,0.156,1.055
		c0,0.889-0.22,1.576-0.659,2.061s-0.967,0.728-1.582,0.728c-0.612,0-1.092-0.255-1.44-0.767V8.582z M364.942,5.95
		c0,0.622,0.085,1.071,0.254,1.348c0.276,0.453,0.651,0.679,1.123,0.679c0.384,0,0.716-0.167,0.996-0.5s0.42-0.831,0.42-1.492
		c0-0.677-0.134-1.177-0.403-1.499c-0.268-0.322-0.593-0.483-0.974-0.483c-0.384,0-0.716,0.167-0.996,0.5
		S364.942,5.318,364.942,5.95z"/>
	<path fill="#241F20" d="M373.087,7.942c-0.325,0.277-0.639,0.472-0.94,0.586c-0.301,0.114-0.624,0.171-0.969,0.171
		c-0.569,0-1.008-0.139-1.313-0.417s-0.459-0.634-0.459-1.067c0-0.254,0.058-0.486,0.173-0.696c0.116-0.21,0.268-0.378,0.455-0.505
		c0.187-0.127,0.397-0.223,0.632-0.288c0.173-0.045,0.433-0.089,0.781-0.132c0.71-0.084,1.232-0.186,1.567-0.303
		c0.003-0.121,0.005-0.197,0.005-0.229c0-0.358-0.083-0.61-0.249-0.757c-0.225-0.199-0.559-0.298-1.001-0.298
		c-0.413,0-0.719,0.072-0.915,0.217c-0.197,0.145-0.343,0.401-0.438,0.769l-0.859-0.117c0.078-0.368,0.207-0.665,0.386-0.891
		s0.438-0.4,0.776-0.522s0.73-0.183,1.177-0.183c0.442,0,0.803,0.052,1.079,0.156s0.48,0.235,0.61,0.393s0.222,0.357,0.273,0.598
		c0.029,0.15,0.044,0.42,0.044,0.811v1.172c0,0.817,0.019,1.334,0.057,1.55c0.037,0.216,0.111,0.424,0.222,0.623h-0.918
		C373.172,8.399,373.113,8.186,373.087,7.942z M373.014,5.979c-0.319,0.13-0.798,0.241-1.436,0.332
		c-0.361,0.052-0.617,0.111-0.767,0.176s-0.266,0.16-0.347,0.286s-0.122,0.265-0.122,0.417c0,0.234,0.089,0.43,0.267,0.586
		c0.177,0.156,0.437,0.234,0.778,0.234c0.339,0,0.64-0.074,0.903-0.222s0.457-0.351,0.581-0.608
		c0.095-0.199,0.142-0.492,0.142-0.879V5.979z"/>
	<path fill="#241F20" d="M378.648,6.682l0.864,0.112c-0.095,0.596-0.336,1.062-0.726,1.399c-0.389,0.337-0.866,0.505-1.433,0.505
		c-0.71,0-1.28-0.232-1.712-0.696c-0.431-0.464-0.646-1.129-0.646-1.995c0-0.56,0.093-1.05,0.278-1.47s0.468-0.735,0.847-0.945
		c0.38-0.21,0.792-0.315,1.238-0.315c0.563,0,1.023,0.143,1.382,0.427s0.588,0.689,0.688,1.213l-0.854,0.132
		c-0.081-0.348-0.226-0.61-0.433-0.786c-0.206-0.176-0.456-0.264-0.749-0.264c-0.442,0-0.803,0.159-1.079,0.476
		s-0.415,0.819-0.415,1.506c0,0.697,0.134,1.203,0.4,1.519s0.615,0.474,1.045,0.474c0.345,0,0.633-0.106,0.864-0.317
		S378.587,7.122,378.648,6.682z"/>
	<path fill="#241F20" d="M380.27,8.582V1.423h0.879v4.082l2.08-2.109h1.138l-1.982,1.924l2.183,3.262h-1.084l-1.714-2.651
		l-0.62,0.596v2.056H380.27z"/>
</g>
<g>
	<path fill="#241F20" d="M175.545,138.072l0.947,0.239c-0.199,0.778-0.556,1.371-1.072,1.78s-1.146,0.613-1.892,0.613
		c-0.771,0-1.399-0.157-1.882-0.471s-0.851-0.769-1.104-1.365s-0.378-1.235-0.378-1.919c0-0.746,0.143-1.396,0.427-1.951
		s0.69-0.977,1.216-1.265s1.104-0.432,1.736-0.432c0.716,0,1.318,0.182,1.807,0.547s0.829,0.877,1.021,1.538l-0.933,0.22
		c-0.166-0.521-0.407-0.9-0.723-1.138s-0.713-0.356-1.191-0.356c-0.55,0-1.01,0.132-1.379,0.396s-0.629,0.618-0.779,1.062
		s-0.225,0.902-0.225,1.375c0,0.609,0.089,1.14,0.266,1.594s0.453,0.793,0.828,1.018s0.78,0.337,1.216,0.337
		c0.531,0,0.98-0.153,1.348-0.459S175.415,138.674,175.545,138.072z"/>
	<path fill="#241F20" d="M177.528,140.582v-7.158h0.879v7.158H177.528z"/>
	<path fill="#241F20" d="M179.442,137.989c0-0.96,0.267-1.671,0.801-2.134c0.446-0.384,0.99-0.576,1.631-0.576
		c0.713,0,1.295,0.233,1.748,0.701s0.679,1.112,0.679,1.936c0,0.667-0.1,1.192-0.3,1.575s-0.492,0.68-0.874,0.891
		s-0.8,0.317-1.252,0.317c-0.726,0-1.312-0.233-1.76-0.698S179.442,138.864,179.442,137.989z M180.345,137.989
		c0,0.664,0.145,1.161,0.435,1.492s0.654,0.496,1.094,0.496c0.436,0,0.799-0.166,1.089-0.498s0.435-0.838,0.435-1.519
		c0-0.641-0.146-1.127-0.437-1.458s-0.653-0.496-1.086-0.496c-0.439,0-0.804,0.165-1.094,0.493S180.345,137.325,180.345,137.989z"/>
	<path fill="#241F20" d="M188.714,138.682l0.864,0.112c-0.094,0.596-0.336,1.062-0.725,1.399s-0.867,0.505-1.433,0.505
		c-0.709,0-1.28-0.232-1.711-0.696s-0.647-1.129-0.647-1.995c0-0.56,0.093-1.05,0.278-1.47s0.468-0.735,0.847-0.945
		s0.792-0.315,1.238-0.315c0.563,0,1.024,0.143,1.382,0.427s0.587,0.689,0.688,1.213l-0.854,0.132
		c-0.082-0.348-0.226-0.61-0.432-0.786s-0.457-0.264-0.75-0.264c-0.443,0-0.802,0.159-1.079,0.476s-0.415,0.819-0.415,1.506
		c0,0.697,0.133,1.203,0.4,1.519s0.615,0.474,1.045,0.474c0.345,0,0.633-0.106,0.864-0.317S188.652,139.122,188.714,138.682z"/>
	<path fill="#241F20" d="M190.335,140.582v-7.158h0.879v4.082l2.08-2.109h1.138l-1.982,1.924l2.183,3.262h-1.084l-1.714-2.651
		l-0.62,0.596v2.056H190.335z"/>
	<path fill="#241F20" d="M203.329,138.072l0.947,0.239c-0.199,0.778-0.556,1.371-1.072,1.78s-1.146,0.613-1.892,0.613
		c-0.771,0-1.399-0.157-1.882-0.471s-0.851-0.769-1.104-1.365s-0.378-1.235-0.378-1.919c0-0.746,0.143-1.396,0.427-1.951
		s0.69-0.977,1.216-1.265s1.104-0.432,1.736-0.432c0.716,0,1.318,0.182,1.807,0.547s0.829,0.877,1.021,1.538l-0.933,0.22
		c-0.166-0.521-0.407-0.9-0.723-1.138s-0.713-0.356-1.191-0.356c-0.55,0-1.01,0.132-1.379,0.396s-0.629,0.618-0.779,1.062
		s-0.225,0.902-0.225,1.375c0,0.609,0.089,1.14,0.266,1.594s0.453,0.793,0.828,1.018s0.78,0.337,1.216,0.337
		c0.531,0,0.98-0.153,1.348-0.459S203.198,138.674,203.329,138.072z"/>
	<path fill="#241F20" d="M205.292,142.579l-0.098-0.825c0.192,0.052,0.36,0.078,0.503,0.078c0.195,0,0.352-0.033,0.469-0.098
		s0.213-0.156,0.288-0.273c0.055-0.088,0.145-0.306,0.269-0.654c0.016-0.049,0.042-0.121,0.078-0.215l-1.968-5.195h0.947
		l1.079,3.003c0.14,0.381,0.265,0.781,0.376,1.201c0.101-0.404,0.221-0.797,0.361-1.182l1.108-3.022h0.879l-1.973,5.273
		c-0.211,0.57-0.376,0.962-0.493,1.177c-0.156,0.29-0.335,0.502-0.537,0.637s-0.443,0.203-0.723,0.203
		C205.688,142.686,205.5,142.65,205.292,142.579z"/>
	<path fill="#241F20" d="M213.714,138.682l0.864,0.112c-0.094,0.596-0.336,1.062-0.725,1.399s-0.867,0.505-1.433,0.505
		c-0.709,0-1.28-0.232-1.711-0.696s-0.647-1.129-0.647-1.995c0-0.56,0.093-1.05,0.278-1.47s0.468-0.735,0.847-0.945
		s0.792-0.315,1.238-0.315c0.563,0,1.024,0.143,1.382,0.427s0.587,0.689,0.688,1.213l-0.854,0.132
		c-0.082-0.348-0.226-0.61-0.432-0.786s-0.457-0.264-0.75-0.264c-0.443,0-0.802,0.159-1.079,0.476s-0.415,0.819-0.415,1.506
		c0,0.697,0.133,1.203,0.4,1.519s0.615,0.474,1.045,0.474c0.345,0,0.633-0.106,0.864-0.317S213.652,139.122,213.714,138.682z"/>
	<path fill="#241F20" d="M215.311,140.582v-7.158h0.879v7.158H215.311z"/>
	<path fill="#241F20" d="M221.102,138.912l0.908,0.112c-0.143,0.531-0.409,0.942-0.796,1.235s-0.882,0.439-1.484,0.439
		c-0.758,0-1.36-0.233-1.804-0.701s-0.667-1.122-0.667-1.965c0-0.873,0.225-1.549,0.674-2.031s1.032-0.723,1.748-0.723
		c0.693,0,1.26,0.236,1.699,0.708s0.659,1.136,0.659,1.992c0,0.052-0.001,0.13-0.005,0.234h-3.867
		c0.033,0.57,0.194,1.006,0.483,1.309s0.651,0.454,1.084,0.454c0.322,0,0.597-0.084,0.825-0.254S220.969,139.283,221.102,138.912z
		 M218.216,137.491h2.896c-0.039-0.436-0.15-0.763-0.332-0.981c-0.28-0.338-0.643-0.508-1.089-0.508
		c-0.404,0-0.743,0.135-1.018,0.405S218.246,137.038,218.216,137.491z"/>
	<path fill="#241F20" d="M222.762,139.034l0.869-0.137c0.049,0.348,0.185,0.615,0.408,0.801s0.535,0.278,0.935,0.278
		c0.404,0,0.703-0.082,0.898-0.247s0.293-0.357,0.293-0.579c0-0.199-0.086-0.355-0.259-0.469c-0.121-0.078-0.42-0.177-0.898-0.298
		c-0.645-0.163-1.091-0.304-1.34-0.422s-0.438-0.283-0.566-0.493s-0.193-0.442-0.193-0.696c0-0.231,0.053-0.445,0.159-0.642
		s0.25-0.36,0.432-0.491c0.137-0.101,0.323-0.187,0.559-0.256s0.489-0.105,0.759-0.105c0.407,0,0.764,0.059,1.072,0.176
		s0.535,0.276,0.681,0.476s0.248,0.468,0.303,0.803l-0.859,0.117c-0.039-0.267-0.152-0.475-0.339-0.625s-0.452-0.225-0.793-0.225
		c-0.404,0-0.692,0.067-0.864,0.2s-0.259,0.29-0.259,0.469c0,0.114,0.036,0.216,0.107,0.308c0.072,0.094,0.184,0.172,0.337,0.234
		c0.088,0.033,0.347,0.107,0.776,0.225c0.622,0.166,1.056,0.302,1.301,0.408s0.438,0.26,0.579,0.461s0.21,0.453,0.21,0.752
		c0,0.293-0.085,0.569-0.256,0.828s-0.417,0.459-0.74,0.601s-0.687,0.212-1.094,0.212c-0.674,0-1.188-0.14-1.541-0.42
		S222.86,139.584,222.762,139.034z"/>
</g>
<rect x="241.001" y="33.082" fill="#FFFFFF" stroke="#241F20" width="26" height="7"/>
<rect x="267.001" y="33.082" fill="#FFFFFF" stroke="#241F20" width="26" height="7"/>
<rect x="293.001" y="33.082" fill="#83CDF4" stroke="#241F20" width="26" height="7"/>
<rect x="319.001" y="33.082" fill="#FFFFFF" stroke="#241F20" width="26" height="7"/>
<rect x="58.001" y="69.582" fill="#FFFFFF" stroke="#241F20" width="26" height="7"/>
<rect x="84.001" y="69.582" fill="#FFFFFF" stroke="#241F20" width="26" height="7"/>
<rect x="110.001" y="69.582" fill="#83CDF4" stroke="#241F20" width="26" height="7"/>
<rect x="136.001" y="69.582" fill="#FFFFFF" stroke="#241F20" width="26" height="7"/>
<rect x="84.001" y="76.582" fill="#FFFFFF" stroke="#241F20" width="26" height="7"/>
<rect x="110.001" y="76.582" fill="#FFFFFF" stroke="#241F20" width="26" height="7"/>
<rect x="136.001" y="76.582" fill="#83CDF4" stroke="#241F20" width="26" height="7"/>
<rect x="162.001" y="76.582" fill="#FFFFFF" stroke="#241F20" width="26" height="7"/>
<rect x="110.001" y="83.582" fill="#FFFFFF" stroke="#241F20" width="26" height="7"/>
<rect x="136.001" y="83.582" fill="#FFFFFF" stroke="#241F20" width="26" height="7"/>
<rect x="162.001" y="83.582" fill="#83CDF4" stroke="#241F20" width="26" height="7"/>
<rect x="188.001" y="83.582" fill="#FFFFFF" stroke="#241F20" width="26" height="7"/>
<rect x="136.001" y="90.582" fill="#FFFFFF" stroke="#241F20" width="26" height="7"/>
<rect x="162.001" y="90.582" fill="#FFFFFF" stroke="#241F20" width="26" height="7"/>
<rect x="188.001" y="90.582" fill="#83CDF4" stroke="#241F20" width="26" height="7"/>
<rect x="214.001" y="90.582" fill="#FFFFFF" stroke="#241F20" width="26" height="7"/>
<rect x="162.001" y="97.582" fill="#FFFFFF" stroke="#241F20" width="26" height="7"/>
<rect x="188.001" y="97.582" fill="#FFFFFF" stroke="#241F20" width="26" height="7"/>
<rect x="214.001" y="97.582" fill="#83CDF4" stroke="#241F20" width="26" height="7"/>
<rect x="240.001" y="97.582" fill="#FFFFFF" stroke="#241F20" width="26" height="7"/>
<rect x="188.001" y="104.582" fill="#FFFFFF" stroke="#241F20" width="26" height="7"/>
<rect x="214.001" y="104.582" fill="#FFFFFF" stroke="#241F20" width="26" height="7"/>
<rect x="240.001" y="104.582" fill="#83CDF4" stroke="#241F20" width="26" height="7"/>
<rect x="266.001" y="104.582" fill="#FFFFFF" stroke="#241F20" width="26" height="7"/>
<rect x="214.001" y="111.582" fill="#FFFFFF" stroke="#241F20" width="26" height="7"/>
<rect x="240.001" y="111.582" fill="#FFFFFF" stroke="#241F20" width="26" height="7"/>
<rect x="266.001" y="111.582" fill="#83CDF4" stroke="#241F20" width="26" height="7"/>
<rect x="292.001" y="111.582" fill="#FFFFFF" stroke="#241F20" width="26" height="7"/>
</svg>
